<svg width="24" height="24" viewBox="0 0 24 24" fill="none" xmlns="http://www.w3.org/2000/svg">
<path d="M5 5H11C11.55 5 12 4.55 12 4C12 3.45 11.55 3 11 3H5C3.9 3 3 3.9 3 5V19C3 20.1 3.9 21 5 21H11C11.55 21 12 20.55 12 20C12 19.45 11.55 19 11 19H5V5Z" fill="#FF5C5C"/>
<path d="M20.65 11.6498L17.86 8.8598C17.7905 8.78835 17.7012 8.73928 17.6036 8.71886C17.506 8.69845 17.4045 8.70762 17.3121 8.74521C17.2198 8.7828 17.1408 8.84708 17.0851 8.92985C17.0295 9.01261 16.9999 9.11009 17 9.2098V10.9998H10C9.45 10.9998 9 11.4498 9 11.9998C9 12.5498 9.45 12.9998 10 12.9998H17V14.7898C17 15.2398 17.54 15.4598 17.85 15.1398L20.64 12.3498C20.84 12.1598 20.84 11.8398 20.65 11.6498Z" fill="#FF5C5C"/>
</svg>
