<svg width="16" height="16" viewBox="0 0 16 16" fill="none" xmlns="http://www.w3.org/2000/svg">
<path fill-rule="evenodd" clip-rule="evenodd" d="M2.33337 6.87849C2.33337 3.81191 4.89596 1.33332 7.99567 1.33332C11.1041 1.33332 13.6667 3.81191 13.6667 6.87849C13.6667 8.42378 13.1047 9.85841 12.1797 11.0744C11.1592 12.4157 9.90148 13.5843 8.48574 14.5016C8.16172 14.7136 7.86929 14.7296 7.51368 14.5016C6.08987 13.5843 4.8321 12.4157 3.82037 11.0744C2.8947 9.85841 2.33337 8.42378 2.33337 6.87849ZM6.12953 7.05115C6.12953 8.07845 6.96781 8.88643 7.99567 8.88643C9.0242 8.88643 9.87055 8.07845 9.87055 7.05115C9.87055 6.03184 9.0242 5.18453 7.99567 5.18453C6.96781 5.18453 6.12953 6.03184 6.12953 7.05115Z" fill="#ADADAD"/>
</svg>
