<svg width="375" height="812" viewBox="0 0 375 812" fill="none" xmlns="http://www.w3.org/2000/svg">
<rect width="375" height="812" fill="black" fill-opacity="0.05"/>
<circle cx="196" cy="329" r="92.5" stroke="#227DDE"/>
<circle cx="81.5" cy="490.5" r="13" fill="white" stroke="#227DDE"/>
<path d="M79.8594 484.516C79.8594 484.329 79.7853 484.15 79.6534 484.018C79.5216 483.887 79.3427 483.812 79.1562 483.812C78.9698 483.812 78.7909 483.887 78.6591 484.018C78.5272 484.15 78.4531 484.329 78.4531 484.516V484.984H79.8594V484.516Z" fill="#227DDE"/>
<path d="M77.2813 492.367C76.9336 492.367 76.5937 492.47 76.3047 492.663C76.0156 492.857 75.7903 493.131 75.6572 493.452C75.5242 493.774 75.4894 494.127 75.5572 494.468C75.625 494.809 75.7925 495.122 76.0383 495.368C76.2841 495.614 76.5973 495.781 76.9383 495.849C77.2793 495.917 77.6327 495.882 77.9539 495.749C78.2751 495.616 78.5497 495.391 78.7428 495.102C78.936 494.813 79.0391 494.473 79.0391 494.125C79.0385 493.659 78.8532 493.212 78.5236 492.883C78.1941 492.553 77.7473 492.368 77.2813 492.367ZM77.2813 494.828C77.1422 494.828 77.0062 494.787 76.8906 494.71C76.775 494.632 76.6849 494.523 76.6316 494.394C76.5784 494.266 76.5645 494.124 76.5916 493.988C76.6188 493.851 76.6857 493.726 76.7841 493.628C76.8824 493.529 77.0077 493.463 77.1441 493.435C77.2805 493.408 77.4218 493.422 77.5503 493.475C77.6788 493.529 77.7886 493.619 77.8659 493.734C77.9431 493.85 77.9844 493.986 77.9844 494.125C77.9844 494.311 77.9103 494.49 77.7784 494.622C77.6466 494.754 77.4677 494.828 77.2813 494.828Z" fill="#227DDE"/>
<path d="M86.1875 492.367C85.8398 492.367 85.5 492.47 85.2109 492.663C84.9218 492.857 84.6965 493.131 84.5635 493.452C84.4304 493.774 84.3956 494.127 84.4635 494.468C84.5313 494.809 84.6987 495.122 84.9445 495.368C85.1904 495.614 85.5036 495.781 85.8446 495.849C86.1855 495.917 86.539 495.882 86.8602 495.749C87.1814 495.616 87.4559 495.391 87.6491 495.102C87.8422 494.813 87.9453 494.473 87.9453 494.125C87.9448 493.659 87.7594 493.212 87.4299 492.883C87.1003 492.553 86.6535 492.368 86.1875 492.367ZM86.1875 494.828C86.0484 494.828 85.9125 494.787 85.7969 494.71C85.6812 494.632 85.5911 494.523 85.5379 494.394C85.4847 494.266 85.4708 494.124 85.4979 493.988C85.525 493.851 85.592 493.726 85.6903 493.628C85.7886 493.529 85.9139 493.463 86.0503 493.435C86.1867 493.408 86.3281 493.422 86.4566 493.475C86.585 493.529 86.6949 493.619 86.7721 493.734C86.8494 493.85 86.8906 493.986 86.8906 494.125C86.8906 494.311 86.8165 494.49 86.6847 494.622C86.5528 494.754 86.374 494.828 86.1875 494.828Z" fill="#227DDE"/>
<path d="M88.4941 490.901L86.8994 490.103C86.6271 489.683 85.4092 487.805 85.0605 487.349C85.0277 487.306 84.9855 487.271 84.937 487.247C84.8886 487.223 84.8353 487.211 84.7812 487.211H83.1235L82.4775 485.919C82.3905 485.743 82.256 485.596 82.0892 485.493C81.9225 485.39 81.7302 485.335 81.5342 485.336H74.8203C74.6339 485.336 74.4552 485.41 74.3234 485.542C74.1916 485.674 74.1174 485.853 74.1172 486.039V493.422C74.1175 493.702 74.2287 493.97 74.4264 494.167C74.6242 494.365 74.8922 494.476 75.1719 494.477H75.2017C75.1503 494.174 75.1655 493.864 75.2463 493.568C75.3271 493.272 75.4715 492.997 75.6695 492.762C75.8675 492.528 76.1143 492.339 76.3927 492.21C76.6711 492.081 76.9743 492.014 77.2812 492.014C77.5882 492.014 77.8914 492.081 78.1698 492.21C78.4482 492.339 78.695 492.528 78.893 492.762C79.091 492.997 79.2354 493.272 79.3162 493.568C79.397 493.864 79.4122 494.174 79.3608 494.477H84.108C84.0572 494.178 84.0711 493.872 84.1489 493.58C84.2267 493.288 84.3665 493.015 84.5589 492.782C84.7512 492.548 84.9916 492.359 85.2636 492.226C85.5357 492.093 85.8331 492.021 86.1356 492.014C86.4381 492.006 86.7387 492.064 87.0169 492.183C87.2952 492.302 87.5445 492.479 87.7481 492.703C87.9517 492.927 88.1047 493.192 88.1968 493.481C88.2888 493.769 88.3178 494.074 88.2817 494.374C88.4615 494.288 88.6134 494.153 88.7198 493.985C88.8261 493.816 88.8827 493.621 88.8828 493.422V491.53C88.8833 491.399 88.8471 491.271 88.7784 491.16C88.7097 491.049 88.6112 490.959 88.4941 490.901ZM81.0312 489.32C81.0312 489.414 80.9942 489.503 80.9283 489.569C80.8623 489.635 80.7729 489.672 80.6797 489.672H79.8594V490.492C79.8594 490.585 79.8223 490.675 79.7564 490.741C79.6905 490.807 79.6011 490.844 79.5078 490.844H78.8047C78.7114 490.844 78.622 490.807 78.5561 490.741C78.4902 490.675 78.4531 490.585 78.4531 490.492V489.672H77.6328C77.5396 489.672 77.4502 489.635 77.3842 489.569C77.3183 489.503 77.2812 489.414 77.2812 489.32V488.617C77.2812 488.524 77.3183 488.435 77.3842 488.369C77.4502 488.303 77.5396 488.266 77.6328 488.266H78.4531V487.445C78.4531 487.352 78.4902 487.263 78.5561 487.197C78.622 487.131 78.7114 487.094 78.8047 487.094H79.5078C79.6011 487.094 79.6905 487.131 79.7564 487.197C79.8223 487.263 79.8594 487.352 79.8594 487.445V488.266H80.6797C80.7729 488.266 80.8623 488.303 80.9283 488.369C80.9942 488.435 81.0312 488.524 81.0312 488.617V489.32ZM84.3125 491.664H83.873C83.7798 491.664 83.6904 491.627 83.6245 491.561C83.5585 491.495 83.5215 491.406 83.5215 491.313C83.5215 491.219 83.5585 491.13 83.6245 491.064C83.6904 490.998 83.7798 490.961 83.873 490.961H84.3125C84.4057 490.961 84.4952 490.998 84.5611 491.064C84.627 491.13 84.6641 491.219 84.6641 491.313C84.6641 491.406 84.627 491.495 84.5611 491.561C84.4952 491.627 84.4057 491.664 84.3125 491.664ZM86.1503 490.17H83.8438C83.7505 490.17 83.6611 490.133 83.5952 490.067C83.5292 490.001 83.4922 489.912 83.4922 489.818V488.031C83.4922 487.938 83.5292 487.849 83.5952 487.783C83.6611 487.717 83.7505 487.68 83.8438 487.68H84.6436C84.7008 487.68 84.7572 487.694 84.8079 487.72C84.8585 487.747 84.9018 487.786 84.9341 487.833C85.3589 488.456 85.9851 489.416 86.2979 489.899C86.3151 489.925 86.3248 489.956 86.3261 489.987C86.3273 490.019 86.3199 490.05 86.3048 490.078C86.2897 490.106 86.2674 490.129 86.2402 490.145C86.213 490.161 86.1819 490.17 86.1503 490.17Z" fill="#227DDE"/>
<circle cx="339.5" cy="369.5" r="13" fill="white" stroke="#227DDE"/>
<path d="M337.859 363.516C337.859 363.329 337.785 363.15 337.653 363.018C337.522 362.887 337.343 362.812 337.156 362.812C336.97 362.812 336.791 362.887 336.659 363.018C336.527 363.15 336.453 363.329 336.453 363.516V363.984H337.859V363.516Z" fill="#227DDE"/>
<path d="M335.281 371.367C334.934 371.367 334.594 371.47 334.305 371.663C334.016 371.857 333.79 372.131 333.657 372.452C333.524 372.774 333.489 373.127 333.557 373.468C333.625 373.809 333.792 374.122 334.038 374.368C334.284 374.614 334.597 374.781 334.938 374.849C335.279 374.917 335.633 374.882 335.954 374.749C336.275 374.616 336.55 374.391 336.743 374.102C336.936 373.813 337.039 373.473 337.039 373.125C337.039 372.659 336.853 372.212 336.524 371.883C336.194 371.553 335.747 371.368 335.281 371.367ZM335.281 373.828C335.142 373.828 335.006 373.787 334.891 373.71C334.775 373.632 334.685 373.523 334.632 373.394C334.578 373.266 334.565 373.124 334.592 372.988C334.619 372.851 334.686 372.726 334.784 372.628C334.882 372.529 335.008 372.463 335.144 372.435C335.28 372.408 335.422 372.422 335.55 372.475C335.679 372.529 335.789 372.619 335.866 372.734C335.943 372.85 335.984 372.986 335.984 373.125C335.984 373.311 335.91 373.49 335.778 373.622C335.647 373.754 335.468 373.828 335.281 373.828Z" fill="#227DDE"/>
<path d="M344.187 371.367C343.84 371.367 343.5 371.47 343.211 371.663C342.922 371.857 342.697 372.131 342.563 372.452C342.43 372.774 342.396 373.127 342.463 373.468C342.531 373.809 342.699 374.122 342.945 374.368C343.19 374.614 343.504 374.781 343.845 374.849C344.186 374.917 344.539 374.882 344.86 374.749C345.181 374.616 345.456 374.391 345.649 374.102C345.842 373.813 345.945 373.473 345.945 373.125C345.945 372.659 345.759 372.212 345.43 371.883C345.1 371.553 344.654 371.368 344.187 371.367ZM344.187 373.828C344.048 373.828 343.912 373.787 343.797 373.71C343.681 373.632 343.591 373.523 343.538 373.394C343.485 373.266 343.471 373.124 343.498 372.988C343.525 372.851 343.592 372.726 343.69 372.628C343.789 372.529 343.914 372.463 344.05 372.435C344.187 372.408 344.328 372.422 344.457 372.475C344.585 372.529 344.695 372.619 344.772 372.734C344.849 372.85 344.891 372.986 344.891 373.125C344.891 373.311 344.817 373.49 344.685 373.622C344.553 373.754 344.374 373.828 344.187 373.828Z" fill="#227DDE"/>
<path d="M346.494 369.901L344.899 369.103C344.627 368.683 343.409 366.805 343.061 366.349C343.028 366.306 342.985 366.271 342.937 366.247C342.889 366.223 342.835 366.211 342.781 366.211H341.124L340.478 364.919C340.39 364.743 340.256 364.596 340.089 364.493C339.922 364.39 339.73 364.335 339.534 364.336H332.82C332.634 364.336 332.455 364.41 332.323 364.542C332.192 364.674 332.117 364.853 332.117 365.039V372.422C332.117 372.702 332.229 372.97 332.426 373.167C332.624 373.365 332.892 373.476 333.172 373.477H333.202C333.15 373.174 333.165 372.864 333.246 372.568C333.327 372.272 333.472 371.997 333.67 371.762C333.868 371.528 334.114 371.339 334.393 371.21C334.671 371.081 334.974 371.014 335.281 371.014C335.588 371.014 335.891 371.081 336.17 371.21C336.448 371.339 336.695 371.528 336.893 371.762C337.091 371.997 337.235 372.272 337.316 372.568C337.397 372.864 337.412 373.174 337.361 373.477H342.108C342.057 373.178 342.071 372.872 342.149 372.58C342.227 372.288 342.367 372.015 342.559 371.782C342.751 371.548 342.992 371.359 343.264 371.226C343.536 371.093 343.833 371.021 344.136 371.014C344.438 371.006 344.739 371.064 345.017 371.183C345.295 371.302 345.545 371.479 345.748 371.703C345.952 371.927 346.105 372.192 346.197 372.481C346.289 372.769 346.318 373.074 346.282 373.374C346.462 373.288 346.613 373.153 346.72 372.985C346.826 372.816 346.883 372.621 346.883 372.422V370.53C346.883 370.399 346.847 370.271 346.778 370.16C346.71 370.049 346.611 369.959 346.494 369.901ZM339.031 368.32C339.031 368.414 338.994 368.503 338.928 368.569C338.862 368.635 338.773 368.672 338.68 368.672H337.859V369.492C337.859 369.585 337.822 369.675 337.756 369.741C337.69 369.807 337.601 369.844 337.508 369.844H336.805C336.711 369.844 336.622 369.807 336.556 369.741C336.49 369.675 336.453 369.585 336.453 369.492V368.672H335.633C335.54 368.672 335.45 368.635 335.384 368.569C335.318 368.503 335.281 368.414 335.281 368.32V367.617C335.281 367.524 335.318 367.435 335.384 367.369C335.45 367.303 335.54 367.266 335.633 367.266H336.453V366.445C336.453 366.352 336.49 366.263 336.556 366.197C336.622 366.131 336.711 366.094 336.805 366.094H337.508C337.601 366.094 337.69 366.131 337.756 366.197C337.822 366.263 337.859 366.352 337.859 366.445V367.266H338.68C338.773 367.266 338.862 367.303 338.928 367.369C338.994 367.435 339.031 367.524 339.031 367.617V368.32ZM342.312 370.664H341.873C341.78 370.664 341.69 370.627 341.624 370.561C341.559 370.495 341.521 370.406 341.521 370.313C341.521 370.219 341.559 370.13 341.624 370.064C341.69 369.998 341.78 369.961 341.873 369.961H342.312C342.406 369.961 342.495 369.998 342.561 370.064C342.627 370.13 342.664 370.219 342.664 370.313C342.664 370.406 342.627 370.495 342.561 370.561C342.495 370.627 342.406 370.664 342.312 370.664ZM344.15 369.17H341.844C341.751 369.17 341.661 369.133 341.595 369.067C341.529 369.001 341.492 368.912 341.492 368.818V367.031C341.492 366.938 341.529 366.849 341.595 366.783C341.661 366.717 341.751 366.68 341.844 366.68H342.644C342.701 366.68 342.757 366.694 342.808 366.72C342.859 366.747 342.902 366.786 342.934 366.833C343.359 367.456 343.985 368.416 344.298 368.899C344.315 368.925 344.325 368.956 344.326 368.987C344.327 369.019 344.32 369.05 344.305 369.078C344.29 369.106 344.267 369.129 344.24 369.145C344.213 369.161 344.182 369.17 344.15 369.17Z" fill="#227DDE"/>
<circle cx="197" cy="327" r="5" fill="white"/>
<path fill-rule="evenodd" clip-rule="evenodd" d="M184.104 327.047C184.104 320.339 189.71 314.917 196.49 314.917C203.29 314.917 208.896 320.339 208.896 327.047C208.896 330.427 207.666 333.565 205.643 336.225C203.411 339.159 200.659 341.716 197.562 343.722C196.854 344.186 196.214 344.221 195.436 343.722C192.322 341.716 189.57 339.159 187.357 336.225C185.332 333.565 184.104 330.427 184.104 327.047ZM192.408 327.425C192.408 329.672 194.242 331.439 196.49 331.439C198.74 331.439 200.592 329.672 200.592 327.425C200.592 325.195 198.74 323.341 196.49 323.341C194.242 323.341 192.408 325.195 192.408 327.425Z" fill="#227DDE"/>
</svg>
